<svg width="24" height="24" viewBox="0 0 24 24" fill="none" xmlns="http://www.w3.org/2000/svg">
<path d="M13.907 3.32234L13.9074 3.32259L19.6672 7.3525C19.6673 7.35253 19.6673 7.35255 19.6674 7.35258C20.1123 7.66408 20.5421 8.18198 20.8613 8.79331C21.1805 9.40469 21.36 10.054 21.36 10.6V17.38C21.36 19.571 19.581 21.35 17.39 21.35H6.60999C4.4208 21.35 2.63999 19.5628 2.63999 17.37V10.47C2.63999 9.96423 2.80224 9.34793 3.09314 8.75712C3.38386 8.16667 3.77538 7.65794 4.17976 7.34253L4.1799 7.34242L9.18811 3.43381C9.18839 3.43359 9.18867 3.43337 9.18895 3.43316C10.4738 2.43827 12.5706 2.38603 13.907 3.32234ZM12 19.4C12.769 19.4 13.4 18.769 13.4 18V15C13.4 14.231 12.769 13.6 12 13.6C11.231 13.6 10.6 14.231 10.6 15V18C10.6 18.769 11.231 19.4 12 19.4Z" stroke="#6B7280" stroke-width="1.3"/>
</svg>
