<svg width="24" height="22" viewBox="0 0 24 22" fill="none" xmlns="http://www.w3.org/2000/svg">
<path d="M20.5 1H15.5C13.57 1 12 2.57 12 4.5V6.205L8.857 0.999C8.496 0.374 7.848 0 7.126 0C6.404 0 5.756 0.374 5.393 1.001L0.271002 9.964C-0.0919977 10.599 -0.0899976 11.356 0.277002 11.989C0.644002 12.622 1.3 13 2.032 13H5.292C5.103 13.634 5 14.305 5 15C5 18.86 8.141 22 12 22C15.859 22 19 18.86 19 15C19 14.305 18.898 13.634 18.708 13H20.5C22.43 13 24 11.43 24 9.5V4.5C24 2.57 22.43 1 20.5 1ZM2.031 12C1.66 12 1.327 11.809 1.141 11.487C0.954002 11.166 0.953002 10.782 1.138 10.46L6.26 1.5C6.623 0.874 7.626 0.866 7.997 1.507L11.917 8.001C9.166 8.033 6.791 9.661 5.676 12H2.031ZM12 21C8.691 21 6 18.309 6 15C6 11.691 8.691 9 12 9C15.309 9 18 11.691 18 15C18 18.309 15.309 21 12 21ZM23 9.5C23 10.878 21.879 12 20.5 12H18.324C17.336 9.925 15.355 8.41 13 8.072V4.5C13 3.122 14.121 2 15.5 2H20.5C21.879 2 23 3.122 23 4.5V9.5Z" fill="#6B7280"/>
</svg>
